<?xml version="1.0" encoding="UTF-8"?>
<svg width="829" height="684" viewBox="0 0 829 684" xmlns="http://www.w3.org/2000/svg" xmlns:xlink="http://www.w3.org/1999/xlink"><g class="drawing-elements"><g class="drawing-elements"><g>
  <title>Layer 1</title>
  <path id="Path_3200-1410" data-name="Path 3200" d="m320.535,193.957s13.855,104.438 -7.46,116.166s126.823,12.789 126.823,12.789s-33.038,-90.588 -18.118,-118.3l-101.245,-10.655z" fill="#F6D8C9" class="" data-fill-color="#F6D8C9"/>
  <circle id="Ellipse_512" data-name="Ellipse 512" cx="375.42199" cy="175.92699" r="73.536" fill="#F6D8C9" class="selected"/>
  <path id="Path_3201-1411" data-name="Path 3201" d="m548.07,323.44l-12.32,56.1l-26.05,118.69l-0.78,6.5l-8.99,75.25l-5.98,49.99l-4.01,33.58c-24.38,12.53 -42.05,21.18 -42.05,21.18s-1.52,-7.62 -3.97,-17.37c-17.11,5.13 -48.77,13.64 -75.6,15.34c9.77,10.89 -141.12,-266.12 -146.91,-303.16c-4.66,-29.81 -8.16,-55 -8.9,-60.36c-0.1,-0.7 -0.15,-1.06 -0.15,-1.06l112.43,-49.68c7.99,18.53 45.3,24.1 45.3,24.1c30.91,-2.13 55.14,-18.43 55.14,-18.43l122.84,49.33z" fill="#FF6600"/>
  <path id="Path_3203-1412" data-name="Path 3203" d="m314.246,106.369l-13.749,-5.5s28.749,-31.651 68.747,-28.9l-11.25,-12.385s27.5,-11.009 52.5,17.89c13.141,15.191 28.346,33.048 37.825,53.163l14.725,0l-6.146,13.532l21.509,13.532l-22.077,-2.431a75.616,75.616 0 0 1 0.6,22.445a29.041,29.041 0 0 1 -10.634,19l0,0s-17.052,-35.3 -17.052,-40.8l0,13.761s-13.749,-12.385 -13.749,-20.642l-7.5,9.633l-3.75,-15.137l-46.248,15.137l7.5,-12.385l-28.749,4.128l11.25,-15.137s-32.5,17.89 -33.749,33.027s-10.762,29.481 -10.762,29.481s-25.49,-70.77 10.759,-91.412z" fill="#8B5E3C" class="" stroke="#8B5E3C" data-stroke-color="#8B5E3C" data-fill-color="#8B5E3C"/>
  <path id="Path_3204-1413" data-name="Path 3204" d="m628,581.35c-7.49,8.12 -26.05,20.35 -48.55,33.59c-8.37,4.92 -17.28,9.99 -26.37,15.03c-21.69,12.03 -44.4,23.95 -63.14,33.58c-24.38,12.53 -42.05,21.18 -42.05,21.18s-1.52,-7.62 -3.97,-17.37c-3.28,-13.05 -8.22,-29.92 -13.37,-37.39c-0.18,-0.26 -0.36,-0.5 -0.54,-0.74c-1.5,-1.97 -3.01,-3.12 -4.5,-3.12l74.42,-46.13l32.16,-19.94l-23.17,-55.31l-29.06,-69.38l17.54,-55.81l17.63,-56.1l33.04,0s10.94,23.88 24.93,57.18c2.09,4.98 4.25,10.17 6.45,15.53c28.78,70 64.663,167.745 48.55,185.2z" fill="#FF6600"/>
  <path id="Path_3206-1414" data-name="Path 3206" d="m295.49,629.31a47.791,47.791 0 0 0 -8.1,0.66c-22.99,3.95 -29.77,24.76 -31.7,38.7a71.847,71.847 0 0 0 -0.7,12.86l-20.31,-15.62l-7.4,-5.69c-17.81,-6.21 -33.68,-17.24 -47.44,-30.25a238.48,238.48 0 0 1 -31.95,-37.89a334.145,334.145 0 0 1 -24.72,-42.4a31.184,31.184 0 0 1 -0.43,-26.45l25.15,-56.05l36.76,-81.92q0.4,-2.925 0.89,-5.72c7.29,-41.8 26.82,-60.36 26.82,-60.36l14.92,0l9.98,60.36l12.4,74.99l-8.69,28.34l-20.08,65.45l19.19,20.84l55.41,60.15z" fill="#FF6600"/>
  <path id="Path_3208-1415" data-name="Path 3208" d="m603.15,663.375l0,6.07a13.338,13.338 0 0 1 -0.91,4.87a13.693,13.693 0 0 1 -0.97,2a13.438,13.438 0 0 1 -11.55,6.56l-446.55,0a13.437,13.437 0 0 1 -11.55,-6.56a13.685,13.685 0 0 1 -0.97,-2a13.339,13.339 0 0 1 -0.91,-4.87l0,-6.07a13.426,13.426 0 0 1 13.43,-13.43l25.743,0l0,-2.83a0.559,0.559 0 0 1 0.56,-0.56l13.43,0a0.559,0.559 0 0 1 0.56,0.56l0,2.83l8.39,0l0,-2.83a0.559,0.559 0 0 1 0.56,-0.56l13.43,0a0.559,0.559 0 0 1 0.56,0.56l0,2.83l8.4,0l0,-2.83a0.559,0.559 0 0 1 0.56,-0.56l13.43,0a0.559,0.559 0 0 1 0.56,0.56l0,2.83l8.39,0l0,-2.83a0.559,0.559 0 0 1 0.56,-0.56l13.43,0a0.559,0.559 0 0 1 0.56,0.56l0,2.83l8.39,0l0,-2.83a0.559,0.559 0 0 1 0.56,-0.56l13.43,0a0.559,0.559 0 0 1 0.56,0.56l0,2.83l8.4,0l0,-2.83a0.559,0.559 0 0 1 0.56,-0.56l13.43,0a0.559,0.559 0 0 1 0.56,0.56l0,2.83l8.39,0l0,-2.83a0.559,0.559 0 0 1 0.56,-0.56l105.2,0a0.559,0.559 0 0 1 0.56,0.56l0,2.83l8.4,0l0,-2.83a0.559,0.559 0 0 1 0.56,-0.56l13.43,0a0.566,0.566 0 0 1 0.56,0.56l0,2.83l8.39,0l0,-2.83a0.559,0.559 0 0 1 0.56,-0.56l13.43,0a0.559,0.559 0 0 1 0.56,0.56l0,2.83l8.39,0l0,-2.83a0.559,0.559 0 0 1 0.56,-0.56l13.43,0a0.559,0.559 0 0 1 0.56,0.56l0,2.83l8.4,0l0,-2.83a0.559,0.559 0 0 1 0.56,-0.56l13.43,0a0.557,0.557 0 0 1 0.55,0.56l0,2.83l8.4,0l0,-2.83a0.559,0.559 0 0 1 0.56,-0.56l13.43,0a0.559,0.559 0 0 1 0.56,0.56l0,2.83l8.39,0l0,-2.83a0.559,0.559 0 0 1 0.56,-0.56l13.43,0a0.559,0.559 0 0 1 0.56,0.56l0,2.83l39.17,0a13.426,13.426 0 0 1 13.43,13.43l-0.003,0z" fill="#090814"/>
  <path id="Path_3209-1416" data-name="Path 3209" d="m567.194,407.745l-166.443,0l0,-3.431l-75.472,0l0,3.431l-167.129,0a11.259,11.259 0 0 0 -11.258,11.255l0,227.915a11.259,11.259 0 0 0 11.259,11.259l409.043,0a11.259,11.259 0 0 0 11.259,-11.259l0,-227.915a11.259,11.259 0 0 0 -11.259,-11.259l0,0.004z" fill="#090814"/>
  <circle id="Ellipse_513" data-name="Ellipse 513" cx="363" cy="487.315" r="25" fill="none" stroke="#d0cde1" stroke-miterlimit="10" stroke-width="2"/>
  <circle id="Ellipse_514" data-name="Ellipse 514" cx="355" cy="496.315" r="25" fill="#f2f2f2"/>
  <path id="Path_3212-1417" data-name="Path 3212" d="m105.78601,99.24199a48.073,48.073 0 0 0 -12.13,0a47.3,47.3 0 0 0 -39.025,32.912a46.651,46.651 0 0 0 -2.049,12.143c-0.02,0.573 -0.034,1.152 -0.034,1.732a47.219,47.219 0 0 0 47.172,47.172c1,0 2.008,-0.034 3,-0.094a46.654,46.654 0 0 0 6.914,-0.957a47.178,47.178 0 0 0 -3.848,-92.909l0,0.001zm8.7,90.173l-0.007,0a45.356,45.356 0 0 1 -11.759,2.338c-0.991,0.067 -1.995,0.1 -3,0.1a45.88,45.88 0 0 1 -45.819,-45.823c0,-0.58 0.013,-1.159 0.034,-1.732a45.824,45.824 0 1 1 60.556,45.117l-0.005,0z" fill="#090814"/>
  <rect id="Rectangle_745" data-name="Rectangle 745" width="1.348" height="9.434" fill="#090814" y="102.901" x="99.047"/>
  <rect id="Rectangle_746" data-name="Rectangle 746" width="1.348" height="9.434" fill="#090814" y="116.01001" x="68.74701" transform="rotate(-45 68.747 116.01)"/>
  <rect id="Rectangle_747" data-name="Rectangle 747" width="1.348" height="9.434" fill="#090814" y="146.70401" x="56.591" transform="rotate(-90 56.591 146.704)"/>
  <rect id="Rectangle_748" data-name="Rectangle 748" width="1.348" height="9.434" fill="#090814" y="177.00198" x="69.69897" transform="rotate(-135 69.699 177.002)"/>
  <rect id="Rectangle_749" data-name="Rectangle 749" width="1.348" height="9.434" fill="#090814" y="122.67999" x="124.021" transform="rotate(-135 124.021 122.68)"/>
  <rect id="Rectangle_750" data-name="Rectangle 750" width="1.348" height="9.434" fill="#090814" y="146.70401" x="133.414" transform="rotate(-90 133.414 146.704)"/>
  <rect id="Rectangle_751" data-name="Rectangle 751" width="1.348" height="9.434" fill="#090814" y="170.33099" x="123.07001" transform="rotate(-45 123.07 170.331)"/>
  <rect id="Rectangle_752" data-name="Rectangle 752" width="1.348" height="9.434" fill="#090814" y="179.724" x="99.047"/>
  <path id="Path_3213-1418" data-name="Path 3213" d="m101.74199,143.33499a3.369,3.369 0 0 0 -4.043,0a3.468,3.468 0 0 0 -0.964,1.132a3.37,3.37 0 1 0 5.007,-1.132zm-2.022,4.717a2.028,2.028 0 0 1 -2.022,-2.022a2.058,2.058 0 0 1 0.357,-1.146a2.02,2.02 0 1 1 1.664,3.167l0.001,0.001z" fill="#090814"/>
  <rect id="Rectangle_753" data-name="Rectangle 753" width="12.13" height="12.13" fill="#090814" y="87.401" x="93.65399"/>
  <ellipse id="Ellipse_516" data-name="Ellipse 516" cx="99.72" cy="83.69599" rx="16.173" ry="5.728" fill="#090814"/>
  <rect id="Rectangle_754" data-name="Rectangle 754" width="4.043" height="22.912" fill="#090814" y="120.42099" x="97.698"/>
  <path id="Path_3173-1419" data-name="Path 3173" d="m611.018,168.008c-3.279,-13.773 -2.732,-27.339 2.883,-40.629a3.113,3.113 0 0 1 3.322,-2.882l30.684,2.177a3.113,3.113 0 0 1 2.881,3.322l-2.884,40.63a3.113,3.113 0 0 1 -3.322,2.882l-30.678,-2.178a3.113,3.113 0 0 1 -2.886,-3.322z" fill="#f2f2f2"/>
  <path id="Path_3174-1420" data-name="Path 3174" d="m614.241,155.904c-2.624,-6.787 -0.946,-16.121 1.853,-26.12a2.915,2.915 0 0 1 3.111,-2.7l26.37,1.871a2.915,2.915 0 0 1 2.7,3.111l-2.565,36.154a2.916,2.916 0 0 1 -3.111,2.7l-16.336,-1.159a12.986,12.986 0 0 1 -12.021,-13.857l-0.001,0z" fill="#fff"/>
  <path id="Path_3175-1421" data-name="Path 3175" d="m632.49799,157.675l-2.416,-0.415a8.117,8.117 0 0 0 0.633,-2.76c0.381,-5.085 0.42,-10.218 0.623,-15.314a0.966,0.966 0 0 0 -1.629,-0.675l-6.069,5.027c-0.947,0.784 0.41,2.128 1.35,1.35l4.356,-3.608q-0.2,5.008 -0.4,10.016c-0.064,1.6 0.131,3.548 -0.525,5.055a2.432,2.432 0 0 1 -0.348,0.565l-2.675,-0.46c-0.641,-0.11 -1.456,0.425 -1.174,1.174a2.927,2.927 0 0 0 3.975,1.515a3.222,3.222 0 0 0 0.4,-0.212l3.4,0.584c1.193,0.205 1.71,-1.634 0.499,-1.842z" fill="#FF6600"/>
  <path id="Path_3176-1422" data-name="Path 3176" d="m763.22999,219.684c-3.089,-12.972 -2.574,-25.748 2.715,-38.265a2.932,2.932 0 0 1 3.129,-2.714l28.9,2.051a2.932,2.932 0 0 1 2.714,3.129l-2.715,38.265a2.932,2.932 0 0 1 -3.129,2.714l-28.9,-2.051a2.932,2.932 0 0 1 -2.714,-3.129z" fill="#f2f2f2"/>
  <path id="Path_3177-1423" data-name="Path 3177" d="m766.263,208.284c-2.472,-6.392 -0.891,-15.183 1.746,-24.6a2.746,2.746 0 0 1 2.93,-2.542l24.836,1.762a2.745,2.745 0 0 1 2.542,2.93l-2.416,34.051a2.746,2.746 0 0 1 -2.93,2.542l-15.385,-1.092a12.231,12.231 0 0 1 -11.323,-13.051z" fill="#fff"/>
  <path id="Path_3178-1424" data-name="Path 3178" d="m782.476,201.791a5.058,5.058 0 0 0 0.932,-0.565a5.158,5.158 0 0 0 1.687,-5.364c-1.165,-4.281 -6.286,-4.307 -9.822,-3.792c-1.141,0.166 -0.656,1.9 0.478,1.734c2.383,-0.347 6.123,-0.628 7.4,1.975a3.419,3.419 0 0 1 -0.547,3.766a3.327,3.327 0 0 1 -2.023,0.962a5.348,5.348 0 0 0 -2.354,-0.439c-0.833,0.039 -1.3,1.251 -0.454,1.675a5.4,5.4 0 0 0 2.4,0.567a3.9,3.9 0 0 1 2.2,3.714a4.029,4.029 0 0 1 -4.587,3.379l-0.022,0c-1.13,-0.227 -1.613,1.505 -0.478,1.734a5.843,5.843 0 0 0 6.823,-4.66q0.023,-0.124 0.041,-0.248a5.46,5.46 0 0 0 -1.674,-4.438z" fill="#FF6600"/>
  <path id="Path_3179-1425" data-name="Path 3179" d="m763.58399,64.236c-3.718,-15.615 -3.1,-30.994 3.268,-46.062a3.529,3.529 0 0 1 3.766,-3.267l34.786,2.468a3.529,3.529 0 0 1 3.267,3.766l-3.271,46.059a3.529,3.529 0 0 1 -3.766,3.267l-34.783,-2.467a3.529,3.529 0 0 1 -3.267,-3.764z" fill="#f2f2f2"/>
  <path id="Path_3180-1426" data-name="Path 3180" d="m767.24001,50.512c-2.975,-7.695 -1.073,-18.277 2.1,-29.613a3.305,3.305 0 0 1 3.527,-3.06l29.9,2.121a3.306,3.306 0 0 1 3.06,3.527l-2.909,40.989a3.305,3.305 0 0 1 -3.527,3.06l-18.52,-1.314a14.723,14.723 0 0 1 -13.631,-15.71z" fill="#fff"/>
  <path id="Path_3181-1427" data-name="Path 3181" d="m785.62699,29.886a5.385,5.385 0 0 0 -6.82,4.5c-0.394,3.562 3.437,6.373 6.754,5.405a1.083,1.083 0 0 0 -0.575,-2.087c-2.431,0.71 -5.024,-1.916 -3.627,-4.262a3.2,3.2 0 0 1 3.265,-1.6a3.62,3.62 0 0 1 2.412,2.189c1.193,2.688 -0.225,5.417 -2.1,7.371c-1.072,1.114 -2.329,1.98 -3.484,3a5.037,5.037 0 0 0 -1.981,3.574a4.326,4.326 0 0 0 2.461,3.738c1.845,0.949 3.944,0.647 5.906,0.331c1.371,-0.221 0.789,-2.306 -0.575,-2.087c-1.717,0.276 -4.287,0.695 -5.375,-1.1c-0.932,-1.533 0.988,-2.879 2.033,-3.694c2.628,-2.049 5.286,-4.7 5.681,-8.18c0.32,-2.849 -1.13,-6.111 -3.975,-7.098z" fill="#FF6600"/>
  <path id="Path_3187-1428" data-name="Path 3187" d="m506.66599,140.454c12.134,-3.771 25.124,0.307 37.325,-3.173a25.3,25.3 0 0 0 7.841,-3.683a48.73,48.73 0 0 0 5.707,-5.079c3.67,-3.63 7.656,-7.442 13.17,-7.4c7.261,0.055 12.836,5.449 17.676,10.212c0.684,0.673 1.738,-0.38 1.054,-1.054c-4.447,-4.376 -9.252,-8.993 -15.583,-10.3a14.38,14.38 0 0 0 -8.5,0.706a22.19,22.19 0 0 0 -6.317,4.319c-1.949,1.788 -3.747,3.734 -5.723,5.494a23.826,23.826 0 0 1 -7.02,4.431c-5.593,2.227 -11.728,2.5 -17.677,2.431c-7.468,-0.081 -15.113,-0.59 -22.348,1.658c-0.913,0.284 -0.523,1.722 0.4,1.437l-0.005,0.001z" fill="#3f3d56"/>
  <path id="Path_3188-1429" data-name="Path 3188" d="m591.051,121.289l3.73,6.575l1.8,3.182c0.321,0.565 0.65,1.127 0.963,1.7c0.192,0.35 0.611,0.982 0.211,1.314a1.943,1.943 0 0 1 -1.134,0.177c-0.657,0 -1.315,-0.013 -1.973,-0.02l-3.7,-0.037l-7.645,-0.077a0.745,0.745 0 0 0 0,1.49c4.438,0.045 8.879,0.139 13.317,0.135a3.184,3.184 0 0 0 2.178,-0.6a2.072,2.072 0 0 0 0.4,-2.388a22.678,22.678 0 0 0 -1.506,-2.763l-1.624,-2.864l-3.73,-6.575a0.746,0.746 0 0 0 -1.286,0.752l-0.001,-0.001z" fill="#3f3d56"/>
  <path id="Path_3192-1430" data-name="Path 3192" d="m688.80999,121.854c5.844,-7.922 15.823,-11.338 21.842,-19.11a19.6,19.6 0 0 0 3.2,-5.9a37.747,37.747 0 0 0 1.232,-5.79c0.625,-3.95 1.364,-8.159 4.825,-10.663c4.558,-3.3 10.513,-2.49 15.72,-1.738a0.577,0.577 0 0 0 0.174,-1.141c-4.784,-0.691 -9.9,-1.368 -14.453,0.722a11.141,11.141 0 0 0 -4.982,4.342a17.2,17.2 0 0 0 -1.961,5.6c-0.4,2.011 -0.625,4.051 -1.051,6.056a18.456,18.456 0 0 1 -2.349,5.988c-2.469,3.957 -6.176,6.94 -9.919,9.63c-4.7,3.376 -9.7,6.568 -13.189,11.291c-0.44,0.6 0.464,1.315 0.907,0.715l0.004,-0.002z" fill="#3f3d56"/>
  <path id="Path_3193-1431" data-name="Path 3193" d="m731.64099,69.52l6.9,3.088l3.339,1.494c0.593,0.266 1.191,0.523 1.781,0.8c0.362,0.169 1.074,0.429 0.948,0.934c-0.086,0.344 -0.546,0.62 -0.809,0.814c-0.529,0.391 -1.068,0.768 -1.6,1.153l-3,2.161l-6.205,4.466a0.745,0.745 0 0 0 0.883,1.2c3.6,-2.593 7.236,-5.148 10.809,-7.78a3.185,3.185 0 0 0 1.4,-1.77a2.072,2.072 0 0 0 -1.1,-2.158a22.688,22.688 0 0 0 -2.85,-1.334l-3,-1.345l-6.9,-3.088a0.746,0.746 0 0 0 -0.591,1.368l-0.005,-0.003z" fill="#3f3d56"/>
  <path id="Path_3195-1433" data-name="Path 3195" d="m687.20899,182.765c6.569,8.906 17.787,12.745 24.553,21.482a22.035,22.035 0 0 1 3.6,6.629a42.434,42.434 0 0 1 1.385,6.508c0.7,4.441 1.533,9.171 5.424,11.986c5.124,3.707 11.818,2.8 17.671,1.953a0.649,0.649 0 0 1 0.2,1.283c-5.378,0.777 -11.132,1.537 -16.247,-0.812a12.523,12.523 0 0 1 -5.6,-4.881a19.326,19.326 0 0 1 -2.2,-6.289c-0.446,-2.26 -0.7,-4.553 -1.182,-6.807a20.751,20.751 0 0 0 -2.64,-6.731c-2.776,-4.448 -6.942,-7.8 -11.15,-10.825c-5.282,-3.8 -10.909,-7.383 -14.826,-12.692c-0.494,-0.67 0.521,-1.479 1.019,-0.8l-0.007,-0.004z" fill="#3f3d56"/>
  <path id="Path_3196-1434" data-name="Path 3196" d="m735.93301,240.68799l6.9,-3.088l3.339,-1.494c0.593,-0.266 1.191,-0.523 1.781,-0.8c0.362,-0.169 1.074,-0.429 0.948,-0.934c-0.086,-0.344 -0.546,-0.62 -0.809,-0.814c-0.529,-0.391 -1.068,-0.768 -1.6,-1.153l-3,-2.161l-6.205,-4.466a0.745,0.745 0 0 1 0.883,-1.2c3.6,2.593 7.236,5.148 10.809,7.78a3.184,3.184 0 0 1 1.4,1.77a2.072,2.072 0 0 1 -1.1,2.158a22.688,22.688 0 0 1 -2.85,1.334l-3,1.345l-6.9,3.088a0.746,0.746 0 0 1 -0.591,-1.368l-0.005,0.003z" fill="#3f3d56"/>
  <path id="Path_3197-1435" data-name="Path 3197" d="m803.001,241.023l-41.368,0a1.724,1.724 0 0 1 -0.015,-3.447l41.383,0a1.724,1.724 0 0 1 0.015,3.447l-0.015,0z" fill="#FF6600"/>
  <g id="Group_201" data-name="Group 201">
   <ellipse id="Ellipse_44" data-name="Ellipse 44" cx="815.04205" cy="15.21" rx="15.209" ry="15.209" fill="#FF6600" transform="rotate(11 799.833 0.00099985)"/>
   <path id="Path_395-1436" data-name="Path 395" d="m811.57605,22.467a1.577,1.577 0 0 1 -0.949,-0.315l-0.013,-0.013l-3.578,-2.739a1.588,1.588 0 0 1 1.933,-2.516l2.315,1.775l5.471,-7.137a1.588,1.588 0 0 1 2.226,-0.294l0,0l-0.034,0.047l0.035,-0.047a1.59,1.59 0 0 1 0.294,2.226l-6.435,8.392a1.589,1.589 0 0 1 -1.263,0.619l-0.002,0.002z" fill="#fff" transform="rotate(11 806.414 10.9)"/>
  </g>
  <g id="Group_202" data-name="Group 202">
   <ellipse id="Ellipse_44-2" data-name="Ellipse 44" cx="813.98501" cy="179.60801" rx="16.305" ry="16.305" fill="#FF6600" transform="rotate(11 797.68 163.303)"/>
   <path id="Path_395-2-1437" data-name="Path 395" d="m810.27001,187.38801a1.691,1.691 0 0 1 -1.017,-0.338l-0.017,-0.013l-3.833,-2.931a1.7,1.7 0 0 1 2.072,-2.7l2.482,1.9l5.865,-7.651a1.7,1.7 0 0 1 2.387,-0.316l0,0l-0.036,0.049l0.037,-0.051a1.7,1.7 0 0 1 0.315,2.387l-6.9,9a1.7,1.7 0 0 1 -1.354,0.664l-0.001,0z" fill="#fff" transform="rotate(11 804.736 174.988)"/>
  </g>
  <g id="Group_203" data-name="Group 203">
   <ellipse id="Ellipse_44-3" data-name="Ellipse 44" cx="657.10699" cy="124.93001" rx="17.312" ry="17.312" fill="#FF6600" transform="rotate(11 639.795 107.618)"/>
   <path id="Path_395-3-1438" data-name="Path 395" d="m653.16199,133.19201a1.8,1.8 0 0 1 -1.08,-0.359l-0.019,-0.015l-4.069,-3.112a1.808,1.808 0 0 1 2.2,-2.87l2.636,2.021l6.227,-8.124a1.807,1.807 0 0 1 2.529,-0.335l0,0l-0.039,0.054l0.04,-0.054a1.809,1.809 0 0 1 0.334,2.534l-7.319,9.553a1.808,1.808 0 0 1 -1.438,0.705l-0.002,0.002z" fill="#fff" transform="rotate(11 647.286 120.025)"/>
  </g>
  <path id="svg_1" data-name="Path 3197" d="m649.001,186.023l-41.368,0a1.724,1.724 0 0 1 -0.015,-3.447l41.383,0a1.724,1.724 0 0 1 0.015,3.447l-0.015,0z" fill="#FF6600"/>
  <path id="svg_2" data-name="Path 3197" d="m806.001,82.023l-41.368,0a1.724,1.724 0 0 1 -0.015,-3.447l41.383,0a1.724,1.724 0 0 1 0.015,3.447l-0.015,0z" fill="#FF6600"/>
 </g></g></g></svg>